<?xml version="1.0" standalone="no"?>
<!DOCTYPE svg PUBLIC "-//W3C//DTD SVG 20010904//EN"
 "http://www.w3.org/TR/2001/REC-SVG-20010904/DTD/svg10.dtd">
<svg version="1.0" xmlns="http://www.w3.org/2000/svg"
 width="3250.000000pt" height="2992.000000pt" viewBox="0 0 3250.000000 2992.000000"
 preserveAspectRatio="xMidYMid meet">
<metadata>
Created by potrace 1.16, written by Peter Selinger 2001-2019
</metadata>
<g transform="translate(0.000000,2992.000000) scale(0.100000,-0.100000)"
fill="#000000" stroke="none">
<path d="M16185 29895 c-14 -13 -25 -34 -25 -47 0 -57 -131 -1666 -200 -2463
-396 -4540 -801 -7130 -1390 -8895 -654 -1960 -1574 -3029 -3205 -3723 -524
-223 -1111 -413 -1944 -631 -299 -77 -311 -83 -311 -137 0 -57 18 -65 275
-119 2343 -499 3866 -1304 4936 -2610 887 -1083 1474 -2542 1799 -4473 22
-130 44 -246 50 -257 29 -54 131 -54 160 0 6 11 28 127 50 257 323 1926 912
3391 1799 4473 1070 1306 2593 2111 4936 2610 257 54 275 62 275 119 0 54 -13
60 -291 132 -912 238 -1525 440 -2073 683 -1561 694 -2456 1756 -3096 3676
-589 1765 -994 4355 -1390 8895 -69 797 -200 2406 -200 2463 0 38 -43 72 -90
72 -30 0 -47 -6 -65 -25z"/>
<path d="M14520 27787 c-514 -349 -1045 -751 -1460 -1107 -501 -430 -1028
-957 -1411 -1410 -1242 -1472 -2068 -3187 -2659 -5525 -141 -558 -340 -1480
-323 -1495 4 -4 17 -10 28 -14 16 -5 25 4 50 52 16 31 79 138 138 236 930
1545 2290 2726 3957 3436 113 48 223 94 245 102 48 17 64 48 208 383 535 1248
1005 2989 1430 5293 34 181 34 182 13 182 -12 -1 -109 -60 -216 -133z"/>
<path d="M17777 27738 c284 -1542 596 -2862 923 -3903 81 -257 225 -683 235
-693 3 -3 125 4 273 16 1067 87 1992 102 2892 47 2075 -128 3915 -605 5644
-1462 158 -79 266 -127 262 -118 -10 26 -165 260 -306 460 -1452 2066 -3429
3692 -5730 4712 -1120 497 -2291 841 -3515 1034 -206 32 -643 89 -685 89 l-27
0 34 -182z"/>
<path d="M12730 27560 c-1535 -397 -2933 -1017 -4230 -1875 -2320 -1535 -4122
-3730 -5187 -6315 -267 -648 -493 -1342 -669 -2059 l-76 -306 47 -175 c401
-1498 1097 -3013 2009 -4373 978 -1458 2198 -2734 3577 -3744 751 -549 1573
-1034 2430 -1433 160 -75 175 -80 186 -64 7 10 13 23 12 28 0 6 -48 50 -107
97 -293 236 -745 672 -997 962 -861 990 -1434 2056 -1810 3366 -85 296 -131
422 -216 589 -242 472 -640 853 -1264 1212 -88 50 -315 169 -504 263 -370 185
-381 193 -381 267 0 67 28 94 171 165 351 176 742 412 1034 624 419 304 771
656 948 948 71 119 110 217 171 433 53 192 55 200 81 490 102 1127 265 2262
461 3205 647 3112 1888 5429 3814 7123 178 157 493 412 657 532 97 71 115 93
82 97 -8 1 -115 -25 -239 -57z"/>
<path d="M19835 22699 c-225 -10 -686 -39 -702 -44 -20 -7 47 -178 175 -447
48 -101 65 -128 84 -132 13 -3 133 -26 268 -51 3695 -692 6333 -2296 8095
-4920 668 -996 1229 -2184 1633 -3465 228 -723 438 -1575 567 -2305 14 -82 29
-157 32 -165 2 -8 38 84 78 205 209 629 464 1063 855 1456 321 322 683 577
1345 948 110 62 208 121 218 133 26 31 23 110 -5 142 -13 13 -113 79 -223 147
-440 269 -847 551 -1105 768 -156 130 -397 372 -503 506 -281 351 -480 740
-630 1225 -51 164 -68 227 -166 632 -233 949 -550 1841 -976 2741 l-108 228
-216 143 c-830 550 -1712 998 -2656 1350 -1441 538 -2941 834 -4595 906 -267
11 -1194 11 -1465 -1z"/>
<path d="M20913 21325 c-3 -9 -4 -17 -2 -19 2 -2 83 -56 179 -121 1704 -1140
2909 -2843 3526 -4984 72 -249 109 -344 181 -464 177 -292 529 -644 948 -948
292 -212 683 -448 1034 -624 143 -71 171 -98 171 -165 0 -74 -14 -84 -336
-243 -729 -362 -1063 -583 -1393 -921 -116 -119 -132 -141 -129 -164 3 -15 21
-99 41 -187 139 -615 229 -1378 267 -2260 21 -491 11 -1426 -20 -1980 -109
-1908 -455 -3895 -969 -5552 -10 -35 -16 -65 -11 -68 8 -5 164 106 350 249
2082 1600 3669 3721 4604 6153 l85 220 -20 224 c-232 2709 -909 4991 -2038
6874 -706 1179 -1615 2209 -2681 3039 -1021 795 -2223 1433 -3558 1886 -112
39 -208 70 -213 70 -6 0 -12 -7 -16 -15z"/>
<path d="M2064 15768 c-337 -533 -844 -969 -1819 -1567 -110 -68 -210 -134
-223 -147 -28 -32 -31 -111 -4 -142 9 -12 107 -71 217 -133 861 -482 1290
-820 1647 -1296 243 -325 434 -718 583 -1198 25 -82 89 -320 142 -529 52 -209
98 -389 103 -401 9 -23 334 -332 545 -516 1198 -1051 2580 -1897 4158 -2544
1546 -633 3326 -1069 4857 -1190 107 -8 223 -17 258 -20 l63 -6 -3 38 -3 38
-105 22 c-1431 305 -3044 1024 -4520 2013 -1955 1311 -3582 3018 -4657 4886
-494 857 -890 1786 -1133 2654 -18 63 -36 119 -40 123 -4 4 -33 -34 -66 -85z"/>
<path d="M24696 12023 c-21 -54 -71 -215 -112 -358 -88 -306 -169 -552 -258
-783 -372 -968 -874 -1802 -1550 -2578 -167 -191 -589 -614 -778 -778 -1169
-1017 -2543 -1704 -3990 -1995 -106 -21 -235 -45 -286 -52 -84 -12 -96 -16
-113 -41 -11 -15 -60 -113 -109 -217 -287 -610 -592 -1400 -1011 -2616 -107
-313 -154 -435 -170 -447 -43 -35 -95 -35 -138 0 -16 12 -63 134 -170 447
-414 1199 -718 1989 -1001 2595 -45 96 -93 194 -106 218 l-25 42 -437 0
c-3632 1 -7146 831 -9775 2307 -433 243 -912 549 -1257 801 -52 39 -96 66 -98
62 -8 -23 218 -519 413 -905 1838 -3644 5181 -6325 9110 -7309 910 -228 1798
-359 2754 -406 263 -13 1059 -13 1322 0 1968 97 3816 577 5564 1446 l271 134
48 98 c27 53 95 194 151 312 1471 3098 2110 6534 1830 9840 -19 227 -26 280
-34 280 -4 0 -24 -44 -45 -97z"/>
</g>
</svg>
