<?xml version="1.0" encoding="utf-8"?>
<svg viewBox="0 0 100 105" xmlns="http://www.w3.org/2000/svg">
  <defs>
    <path id="half" stroke="none" fill="black" transform="translate(-25,-35)" d=" M 47 0 L 47 66 Q 47 67 46 67 L 0 67 Q 0 70 3 70 L 47 70 Q 50 70 50 67 L 50 3 Q 50 0 47 0 "/>
    <path id="serif" stroke="none" fill="black" transform="translate(-25,-35)" d=" M 47 4 Q 47 3 46 3 L 46 0 L 50 4 "/>
    <g id="half-serif">
      <path stroke="none" fill="black" transform="matrix(1, 0, 0, 1, -25, -35)" d=" M 47 0 L 47 66 Q 47 67 46 67 L 0 67 Q 0 70 3 70 L 47 70 Q 50 70 50 67 L 50 3 Q 50 0 47 0 "/>
      <path stroke="none" fill="black" transform="matrix(1, 0, 0, 1, -25, -35)" d=" M 47 4 Q 47 3 46 3 L 46 0 L 50 4 "/>
    </g>
    <path id="H" transform="scale(1.8) translate(-8.7,-9.8)" d="M 14.364 19.6 L 14.364 0 L 17.388 0 L 17.388 19.6 L 14.364 19.6 Z M 0 19.6 L 0 0 L 3.024 0 L 3.024 19.6 L 0 19.6 Z M 3.024 11.34 L 5.936 8.428 L 15.708 8.428 L 15.708 11.34 L 3.024 11.34 Z"/>
  </defs>
  <g id="group-1" transform="matrix(1, 0, 0, 1, 50, 60.985279)">
    <g id="group-2" transform=" rotate(45) translate(-12,-12) ">
      <g id="group-3">
        <path transform="matrix(1.7999999523162842, 0, 0, 1.7999999523162842, -15.659999241828928, -17.63999987602233)" d="M 14.364 19.6 L 14.364 0 L 17.388 0 L 17.388 19.6 L 14.364 19.6 Z M 0 19.6 L 0 0 L 3.024 0 L 3.024 19.6 L 0 19.6 Z M 3.024 11.34 L 5.936 8.428 L 15.708 8.428 L 15.708 11.34 L 3.024 11.34 Z"/>
        <g>
          <path stroke="none" fill="black" transform="matrix(1, 0, 0, 1, -25, -35)" d=" M 47 0 L 47 66 Q 47 67 46 67 L 0 67 Q 0 70 3 70 L 47 70 Q 50 70 50 67 L 50 3 Q 50 0 47 0 "/>
          <path stroke="none" fill="black" transform="matrix(1, 0, 0, 1, -25, -35)" d=" M 47 4 Q 47 3 46 3 L 46 0 L 50 4 "/>
        </g>
        <g transform="matrix(-1, 1.2246467991473532e-16, -1.2246467991473532e-16, -1, 0, 0)">
          <path stroke="none" fill="black" transform="matrix(1, 0, 0, 1, -25, -35)" d=" M 47 0 L 47 66 Q 47 67 46 67 L 0 67 Q 0 70 3 70 L 47 70 Q 50 70 50 67 L 50 3 Q 50 0 47 0 "/>
          <path stroke="none" fill="black" transform="matrix(1, 0, 0, 1, -25, -35)" d=" M 47 4 Q 47 3 46 3 L 46 0 L 50 4 "/>
        </g>
      </g>
      <g id="group-4">
        <path stroke="none" fill="black" transform="matrix(1, 0, 0, 1, -19, -29)" d=" M 47 0 L 47 66 Q 47 67 46 67 L 0 67 Q 0 70 3 70 L 47 70 Q 50 70 50 67 L 50 3 Q 50 0 47 0 "/>
        <path stroke="none" fill="black" transform="matrix(1, 0, 0, 1, -13, -23)" d=" M 47 0 L 47 66 Q 47 67 46 67 L 0 67 Q 0 70 3 70 L 47 70 Q 50 70 50 67 L 50 3 Q 50 0 47 0 "/>
      </g>
    </g>
  </g>
</svg>