<?xml version="1.0" encoding="utf-8"?>
<svg viewBox="0 0 230 160" xmlns="http://www.w3.org/2000/svg">
  <defs>
    <path id="half" stroke="none" fill="black" transform="translate(-25,-35)" d=" M 47 0 L 47 66 Q 47 67 46 67 L 0 67 Q 0 70 3 70 L 47 70 Q 50 70 50 67 L 50 3 Q 50 0 47 0 "/>
    <path id="serif" stroke="none" fill="black" transform="translate(-25,-35)" d=" M 47 4 Q 47 3 46 3 L 46 0 L 50 4 "/>
    <g id="half-serif">
      <path stroke="none" fill="black" transform="matrix(1, 0, 0, 1, -25, -35)" d=" M 47 0 L 47 66 Q 47 67 46 67 L 0 67 Q 0 70 3 70 L 47 70 Q 50 70 50 67 L 50 3 Q 50 0 47 0 "/>
      <path stroke="none" fill="black" transform="matrix(1, 0, 0, 1, -25, -35)" d=" M 47 4 Q 47 3 46 3 L 46 0 L 50 4 "/>
    </g>
    <path id="flame" transform="scale(.1)" d="M 0 220 C 75 220 175 165 175 75 C 175 30 160 -10 135 -50 C 130 70 13 57 0 190 C -25 150 -20 100 30 50 C 150 -50 60 -170 -30 -220 C -5 -45 -175 -67 -175 75 C -175 165 -90 220 0 220 Z " stroke="none" fill="black"/>
  </defs>
  <g id="group-1" transform="matrix(1, 0, 0, 1, 115.008003, 61.468487)">
    <g id="group-2" transform=" rotate(45) translate(-12,-12) ">
      <g id="group-3">
        <path transform="matrix(0.10000000149011612, 0, 0, 0.10000000149011612, 0, 0)" d="M 0 220 C 75 220 175 165 175 75 C 175 30 160 -10 135 -50 C 130 70 13 57 0 190 C -25 150 -20 100 30 50 C 150 -50 60 -170 -30 -220 C -5 -45 -175 -67 -175 75 C -175 165 -90 220 0 220 Z " stroke="none" fill="black"/>
        <g>
          <path stroke="none" fill="black" transform="matrix(1, 0, 0, 1, -25, -35)" d=" M 47 0 L 47 66 Q 47 67 46 67 L 0 67 Q 0 70 3 70 L 47 70 Q 50 70 50 67 L 50 3 Q 50 0 47 0 "/>
          <path stroke="none" fill="black" transform="matrix(1, 0, 0, 1, -25, -35)" d=" M 47 4 Q 47 3 46 3 L 46 0 L 50 4 "/>
        </g>
        <g transform="matrix(-1, 1.2246467991473532e-16, -1.2246467991473532e-16, -1, 0, 0)">
          <path stroke="none" fill="black" transform="matrix(1, 0, 0, 1, -25, -35)" d=" M 47 0 L 47 66 Q 47 67 46 67 L 0 67 Q 0 70 3 70 L 47 70 Q 50 70 50 67 L 50 3 Q 50 0 47 0 "/>
          <path stroke="none" fill="black" transform="matrix(1, 0, 0, 1, -25, -35)" d=" M 47 4 Q 47 3 46 3 L 46 0 L 50 4 "/>
        </g>
      </g>
      <g id="group-4">
        <path stroke="none" fill="black" transform="matrix(1, 0, 0, 1, -19, -29)" d=" M 47 0 L 47 66 Q 47 67 46 67 L 0 67 Q 0 70 3 70 L 47 70 Q 50 70 50 67 L 50 3 Q 50 0 47 0 "/>
        <path stroke="none" fill="black" transform="matrix(1, 0, 0, 1, -13, -23)" d=" M 47 0 L 47 66 Q 47 67 46 67 L 0 67 Q 0 70 3 70 L 47 70 Q 50 70 50 67 L 50 3 Q 50 0 47 0 "/>
      </g>
    </g>
    <g id="group-5" transform="translate(0,60)">
      <path id="path-1" transform="translate(-112.5,-10.1)" d="M 14.364 19.88 L 14.364 0.28 L 17.388 0.28 L 17.388 19.88 L 14.364 19.88 Z M 0 19.88 L 0 0.28 L 3.024 0.28 L 3.024 19.88 L 0 19.88 Z M 3.024 11.62 L 5.936 8.708 L 15.708 8.708 L 15.708 11.62 L 3.024 11.62 Z M 26.252 19.88 L 26.252 0.28 L 40.168 0.28 L 40.168 3.192 L 29.276 3.192 L 29.276 16.968 L 40.168 16.968 L 40.168 19.88 L 26.252 19.88 Z M 27.736 11.284 L 27.736 8.372 L 38.628 8.372 L 38.628 11.284 L 27.736 11.284 Z M 46.176 19.88 L 54.548 0.28 L 57.824 0.28 L 66.14 19.88 L 62.864 19.88 L 57.544 7.392 C 57.45 7.168 57.32 6.842 57.152 6.412 C 57.002 5.964 56.834 5.488 56.648 4.984 C 56.461 4.48 56.284 4.004 56.116 3.556 C 55.948 3.09 55.817 2.726 55.724 2.464 L 56.48 2.436 C 56.349 2.81 56.2 3.22 56.032 3.668 C 55.882 4.116 55.714 4.574 55.528 5.04 C 55.36 5.507 55.192 5.955 55.024 6.384 C 54.856 6.795 54.706 7.168 54.576 7.504 L 49.284 19.88 L 46.176 19.88 Z M 49.844 15.12 L 51.02 12.208 L 60.988 12.208 L 61.968 15.12 L 49.844 15.12 Z M 72.792 19.88 L 72.792 0.28 L 82.368 0.28 C 83.506 0.28 84.552 0.551 85.504 1.092 C 86.456 1.634 87.212 2.371 87.772 3.304 C 88.332 4.238 88.612 5.283 88.612 6.44 C 88.612 7.542 88.313 8.559 87.716 9.492 C 87.137 10.426 86.353 11.172 85.364 11.732 C 84.393 12.292 83.32 12.572 82.144 12.572 L 75.816 12.572 L 75.816 19.88 L 72.792 19.88 Z M 85.84 19.88 L 80.184 11.032 L 83.348 10.332 L 89.564 19.908 L 85.84 19.88 Z M 75.816 9.66 L 82.2 9.66 C 82.816 9.66 83.366 9.52 83.852 9.24 C 84.356 8.942 84.748 8.55 85.028 8.064 C 85.326 7.56 85.476 7.01 85.476 6.412 C 85.476 5.796 85.308 5.246 84.972 4.76 C 84.654 4.275 84.206 3.892 83.628 3.612 C 83.068 3.332 82.433 3.192 81.724 3.192 L 75.816 3.192 L 75.816 9.66 Z M 101.004 19.88 L 101.004 3.192 L 94.732 3.192 L 94.732 0.28 L 110.468 0.28 L 110.468 3.192 L 104.028 3.192 L 104.028 19.88 L 101.004 19.88 Z M 131.736 19.88 L 131.736 0.28 L 134.76 0.28 L 134.76 19.88 L 131.736 19.88 Z M 117.372 19.88 L 117.372 0.28 L 120.396 0.28 L 120.396 19.88 L 117.372 19.88 Z M 120.396 11.62 L 123.308 8.708 L 133.08 8.708 L 133.08 11.62 L 120.396 11.62 Z M 150.568 20.16 C 149.354 20.16 148.234 20.02 147.208 19.74 C 146.2 19.46 145.276 19.04 144.436 18.48 C 143.614 17.902 142.868 17.192 142.196 16.352 L 144.212 13.916 C 145.238 15.204 146.256 16.119 147.264 16.66 C 148.272 17.183 149.438 17.444 150.764 17.444 C 151.566 17.444 152.322 17.332 153.032 17.108 C 153.741 16.884 154.31 16.558 154.74 16.128 C 155.169 15.699 155.384 15.186 155.384 14.588 C 155.384 14.196 155.281 13.851 155.076 13.552 C 154.889 13.254 154.618 13.002 154.264 12.796 C 153.928 12.572 153.526 12.376 153.06 12.208 C 152.612 12.04 152.136 11.9 151.632 11.788 C 151.128 11.658 150.605 11.555 150.064 11.48 C 148.962 11.294 147.982 11.042 147.124 10.724 C 146.265 10.407 145.537 10.006 144.94 9.52 C 144.361 9.035 143.922 8.475 143.624 7.84 C 143.325 7.187 143.176 6.44 143.176 5.6 C 143.176 4.779 143.362 4.023 143.736 3.332 C 144.128 2.642 144.66 2.054 145.332 1.568 C 146.022 1.064 146.825 0.682 147.74 0.42 C 148.654 0.14 149.644 0 150.708 0 C 151.846 0 152.882 0.131 153.816 0.392 C 154.749 0.654 155.58 1.046 156.308 1.568 C 157.036 2.072 157.642 2.698 158.128 3.444 L 156.056 5.6 C 155.626 4.966 155.132 4.434 154.572 4.004 C 154.012 3.575 153.396 3.258 152.724 3.052 C 152.07 2.828 151.37 2.716 150.624 2.716 C 149.784 2.716 149.037 2.828 148.384 3.052 C 147.749 3.276 147.245 3.594 146.872 4.004 C 146.498 4.396 146.312 4.872 146.312 5.432 C 146.312 5.862 146.414 6.244 146.62 6.58 C 146.825 6.916 147.124 7.215 147.516 7.476 C 147.908 7.719 148.412 7.934 149.028 8.12 C 149.644 8.288 150.344 8.438 151.128 8.568 C 152.192 8.755 153.172 8.998 154.068 9.296 C 154.982 9.576 155.766 9.931 156.42 10.36 C 157.092 10.771 157.605 11.275 157.96 11.872 C 158.333 12.47 158.52 13.17 158.52 13.972 C 158.52 15.223 158.193 16.315 157.54 17.248 C 156.886 18.182 155.962 18.9 154.768 19.404 C 153.592 19.908 152.192 20.16 150.568 20.16 Z M 165.704 19.88 L 165.704 16.996 L 169.652 16.996 L 169.652 3.164 L 165.704 3.164 L 165.704 0.28 L 176.624 0.28 L 176.624 3.164 L 172.676 3.164 L 172.676 16.996 L 176.624 16.996 L 176.624 19.88 L 165.704 19.88 Z M 185.152 19.88 L 185.152 0.28 L 193.72 0.28 C 195.269 0.28 196.65 0.523 197.864 1.008 C 199.096 1.494 200.141 2.184 201 3.08 C 201.858 3.976 202.512 5.022 202.96 6.216 C 203.408 7.392 203.632 8.68 203.632 10.08 C 203.632 11.499 203.408 12.806 202.96 14 C 202.512 15.195 201.858 16.231 201 17.108 C 200.16 17.986 199.124 18.667 197.892 19.152 C 196.66 19.638 195.269 19.88 193.72 19.88 L 185.152 19.88 Z M 188.176 17.276 L 188.092 16.968 L 193.58 16.968 C 194.718 16.968 195.717 16.8 196.576 16.464 C 197.453 16.128 198.172 15.662 198.732 15.064 C 199.31 14.448 199.749 13.72 200.048 12.88 C 200.346 12.04 200.496 11.107 200.496 10.08 C 200.496 9.072 200.346 8.148 200.048 7.308 C 199.749 6.468 199.31 5.74 198.732 5.124 C 198.153 4.508 197.434 4.032 196.576 3.696 C 195.717 3.36 194.718 3.192 193.58 3.192 L 188.008 3.192 L 188.176 2.94 L 188.176 17.276 Z M 211.068 19.88 L 211.068 0.28 L 224.984 0.28 L 224.984 3.192 L 214.092 3.192 L 214.092 16.968 L 224.984 16.968 L 224.984 19.88 L 211.068 19.88 Z M 212.552 11.284 L 212.552 8.372 L 223.444 8.372 L 223.444 11.284 L 212.552 11.284 Z"/>
    </g>
    <g id="group-6" transform="translate(0,90)">
      <path id="path-2" transform="translate(-38.1,-6.5)" d="M 6.912 12.96 C 5.964 12.96 5.07 12.81 4.23 12.51 C 3.402 12.198 2.67 11.76 2.034 11.196 C 1.398 10.62 0.9 9.936 0.54 9.144 C 0.18 8.34 0 7.452 0 6.48 C 0 5.58 0.174 4.74 0.522 3.96 C 0.882 3.18 1.38 2.502 2.016 1.926 C 2.664 1.338 3.414 0.882 4.266 0.558 C 5.118 0.234 6.036 0.072 7.02 0.072 C 7.764 0.072 8.472 0.168 9.144 0.36 C 9.816 0.552 10.416 0.81 10.944 1.134 C 11.484 1.458 11.916 1.818 12.24 2.214 L 10.98 3.564 C 10.596 3.228 10.188 2.946 9.756 2.718 C 9.336 2.478 8.892 2.292 8.424 2.16 C 7.968 2.028 7.5 1.962 7.02 1.962 C 6.312 1.962 5.652 2.076 5.04 2.304 C 4.44 2.532 3.912 2.85 3.456 3.258 C 3 3.666 2.646 4.146 2.394 4.698 C 2.142 5.238 2.016 5.832 2.016 6.48 C 2.016 7.176 2.148 7.806 2.412 8.37 C 2.676 8.934 3.042 9.42 3.51 9.828 C 3.978 10.224 4.512 10.53 5.112 10.746 C 5.712 10.962 6.348 11.07 7.02 11.07 C 7.584 11.07 8.118 11.004 8.622 10.872 C 9.138 10.728 9.588 10.53 9.972 10.278 C 10.368 10.026 10.668 9.732 10.872 9.396 C 11.088 9.048 11.19 8.682 11.178 8.298 L 11.178 7.992 L 11.448 8.298 L 6.984 8.298 L 8.892 6.39 L 13.212 6.39 C 13.236 6.546 13.254 6.684 13.266 6.804 C 13.278 6.912 13.284 7.014 13.284 7.11 C 13.296 7.194 13.302 7.278 13.302 7.362 C 13.302 8.238 13.14 9.024 12.816 9.72 C 12.492 10.404 12.042 10.986 11.466 11.466 C 10.902 11.946 10.23 12.318 9.45 12.582 C 8.682 12.834 7.836 12.96 6.912 12.96 Z M 16.372 12.78 L 21.754 0.18 L 23.86 0.18 L 29.206 12.78 L 27.1 12.78 L 23.68 4.752 C 23.62 4.608 23.536 4.398 23.428 4.122 C 23.332 3.834 23.224 3.528 23.104 3.204 C 22.984 2.88 22.87 2.574 22.762 2.286 C 22.654 1.986 22.57 1.752 22.51 1.584 L 22.996 1.566 C 22.912 1.806 22.816 2.07 22.708 2.358 C 22.612 2.646 22.504 2.94 22.384 3.24 C 22.276 3.54 22.168 3.828 22.06 4.104 C 21.952 4.368 21.856 4.608 21.772 4.824 L 18.37 12.78 L 16.372 12.78 Z M 18.73 9.72 L 19.486 7.848 L 25.894 7.848 L 26.524 9.72 L 18.73 9.72 Z M 33.518 12.78 L 33.518 0.18 L 35.426 0.18 L 40.466 7.506 L 39.638 7.488 L 44.732 0.18 L 46.568 0.18 L 46.568 12.78 L 44.624 12.78 L 44.624 7.542 C 44.624 6.498 44.648 5.544 44.696 4.68 C 44.756 3.804 44.852 2.928 44.984 2.052 L 45.218 2.754 L 40.61 9.162 L 39.422 9.162 L 34.904 2.79 L 35.102 2.052 C 35.234 2.904 35.324 3.762 35.372 4.626 C 35.432 5.478 35.462 6.45 35.462 7.542 L 35.462 12.78 L 33.518 12.78 Z M 52.32 12.78 L 52.32 0.18 L 61.266 0.18 L 61.266 2.052 L 54.264 2.052 L 54.264 10.908 L 61.266 10.908 L 61.266 12.78 L 52.32 12.78 Z M 53.274 7.254 L 53.274 5.382 L 60.276 5.382 L 60.276 7.254 L 53.274 7.254 Z M 71.068 12.96 C 70.288 12.96 69.568 12.87 68.908 12.69 C 68.26 12.51 67.666 12.24 67.126 11.88 C 66.598 11.508 66.118 11.052 65.686 10.512 L 66.982 8.946 C 67.642 9.774 68.296 10.362 68.944 10.71 C 69.592 11.046 70.342 11.214 71.194 11.214 C 71.71 11.214 72.196 11.142 72.652 10.998 C 73.108 10.854 73.474 10.644 73.75 10.368 C 74.026 10.092 74.164 9.762 74.164 9.378 C 74.164 9.126 74.098 8.904 73.966 8.712 C 73.846 8.52 73.672 8.358 73.444 8.226 C 73.228 8.082 72.97 7.956 72.67 7.848 C 72.382 7.74 72.076 7.65 71.752 7.578 C 71.428 7.494 71.092 7.428 70.744 7.38 C 70.036 7.26 69.406 7.098 68.854 6.894 C 68.302 6.69 67.834 6.432 67.45 6.12 C 67.078 5.808 66.796 5.448 66.604 5.04 C 66.412 4.62 66.316 4.14 66.316 3.6 C 66.316 3.072 66.436 2.586 66.676 2.142 C 66.928 1.698 67.27 1.32 67.702 1.008 C 68.146 0.684 68.662 0.438 69.25 0.27 C 69.838 0.09 70.474 0 71.158 0 C 71.89 0 72.556 0.084 73.156 0.252 C 73.756 0.42 74.29 0.672 74.758 1.008 C 75.226 1.332 75.616 1.734 75.928 2.214 L 74.596 3.6 C 74.32 3.192 74.002 2.85 73.642 2.574 C 73.282 2.298 72.886 2.094 72.454 1.962 C 72.034 1.818 71.584 1.746 71.104 1.746 C 70.564 1.746 70.084 1.818 69.664 1.962 C 69.256 2.106 68.932 2.31 68.692 2.574 C 68.452 2.826 68.332 3.132 68.332 3.492 C 68.332 3.768 68.398 4.014 68.53 4.23 C 68.662 4.446 68.854 4.638 69.106 4.806 C 69.358 4.962 69.682 5.1 70.078 5.22 C 70.474 5.328 70.924 5.424 71.428 5.508 C 72.112 5.628 72.742 5.784 73.318 5.976 C 73.906 6.156 74.41 6.384 74.83 6.66 C 75.262 6.924 75.592 7.248 75.82 7.632 C 76.06 8.016 76.18 8.466 76.18 8.982 C 76.18 9.786 75.97 10.488 75.55 11.088 C 75.13 11.688 74.536 12.15 73.768 12.474 C 73.012 12.798 72.112 12.96 71.068 12.96 Z"/>
    </g>
  </g>
</svg>